HIERARCHY
ROOT Hips
{
	OFFSET 0.000000 0.000000 0.000000
	CHANNELS 6 Xposition Yposition Zposition Yrotation Xrotation Zrotation
	JOINT Chest
	{
		OFFSET 0.000000 -0.009281 11.569106
		CHANNELS 3 Yrotation Xrotation Zrotation
		JOINT Chest2
		{
			OFFSET -0.000000 0.016865 9.269641
			CHANNELS 3 Yrotation Xrotation Zrotation
			JOINT Chest3
			{
				OFFSET -0.000000 0.000001 8.374491
				CHANNELS 3 Yrotation Xrotation Zrotation
				JOINT Chest4
				{
					OFFSET -0.000000 0.000001 8.374493
					CHANNELS 3 Yrotation Xrotation Zrotation
					JOINT Neck
					{
						OFFSET -0.000000 0.000002 12.152554
						CHANNELS 3 Yrotation Xrotation Zrotation
						JOINT Head
						{
							OFFSET -0.000000 0.040101 7.802319
							CHANNELS 3 Yrotation Xrotation Zrotation
							End Site
							{
								OFFSET -0.000000 0.020947 14.853096
							}
						}
					}
					JOINT RightCollar
					{
						OFFSET 2.894404 0.000001 6.791374
						CHANNELS 3 Yrotation Xrotation Zrotation
						JOINT RightShoulder
						{
							OFFSET 13.574684 0.000001 0.000000
							CHANNELS 3 Yrotation Xrotation Zrotation
							JOINT RightElbow
							{
								OFFSET 23.923903 0.000002 0.000000
								CHANNELS 3 Yrotation Xrotation Zrotation
								JOINT RightWrist
								{
									OFFSET 19.846718 0.012767 0.000000
									CHANNELS 3 Yrotation Xrotation Zrotation
									End Site
									{
										OFFSET 14.973145 0.000001 0.000000
									}
								}
							}
						}
					}
					JOINT LeftCollar
					{
						OFFSET -2.894404 0.000001 6.791374
						CHANNELS 3 Yrotation Xrotation Zrotation
						JOINT LeftShoulder
						{
							OFFSET -13.574684 -0.000001 0.000000
							CHANNELS 3 Yrotation Xrotation Zrotation
							JOINT LeftElbow
							{
								OFFSET -23.923903 -0.000002 0.000000
								CHANNELS 3 Yrotation Xrotation Zrotation
								JOINT LeftWrist
								{
									OFFSET -19.846718 0.012763 0.000000
									CHANNELS 3 Yrotation Xrotation Zrotation
									End Site
									{
										OFFSET -14.973145 -0.000001 0.000000
									}
								}
							}
						}
					}
				}
			}
		}
	}
	JOINT RightHip
	{
		OFFSET 9.469263 0.004643 0.045487
		CHANNELS 3 Yrotation Xrotation Zrotation
		JOINT RightKnee
		{
			OFFSET 0.000000 0.002661 -40.478676
			CHANNELS 3 Yrotation Xrotation Zrotation
			JOINT RightAnkle
			{
				OFFSET 0.000000 0.049106 -35.224068
				CHANNELS 3 Yrotation Xrotation Zrotation
				JOINT RightToe
				{
					OFFSET -0.000001 12.539529 -6.151390
					CHANNELS 3 Yrotation Xrotation Zrotation
					End Site
					{
						OFFSET -0.000001 5.044994 -1.291870
					}
				}
			}
		}
	}
	JOINT LeftHip
	{
		OFFSET -9.469263 0.004641 0.045487
		CHANNELS 3 Yrotation Xrotation Zrotation
		JOINT LeftKnee
		{
			OFFSET 0.000000 0.002661 -40.478676
			CHANNELS 3 Yrotation Xrotation Zrotation
			JOINT LeftAnkle
			{
				OFFSET 0.000000 0.049106 -35.224068
				CHANNELS 3 Yrotation Xrotation Zrotation
				JOINT LeftToe
				{
					OFFSET -0.000001 12.539529 -6.151390
					CHANNELS 3 Yrotation Xrotation Zrotation
					End Site
					{
						OFFSET -0.000001 5.044994 -1.291870
					}
				}
			}
		}
	}
}
MOTION
Frames: 12
Frame Time: 0.016667
12.679881 4.013343 83.164711 -4.807054 -3.160497 -108.408872 -0.938745 -1.116423 0.885967 -0.416621 -0.497303 0.383646 -0.416620 -0.497303 0.383645 -0.312151 -0.373239 0.287393 -0.145210 -17.170080 12.396248 3.900936 3.402958 22.845082 8.671542 7.060351 -6.010543 69.284852 14.373353 12.865982 7.044725 59.464931 12.144775 -72.010193 30.591096 -3.666279 -4.955111 1.620101 -12.131578 -62.590870 35.738955 -62.865437 10.206093 -1.118894 -58.416224 72.753372 -13.889802 -44.429909 1.294014 -8.863175 -1.793106 0.970338 -4.334943 0.856043 -0.786611 6.833295 -3.720694 -0.113967 -0.049108 -0.033013 0.917417 -9.207302 -0.888413 -0.061112 -3.317769 5.005610 -0.778426 6.331247 -0.633532 -0.290110 -0.098432 0.031396 
12.642877 3.977809 83.160500 -4.858627 -3.216128 -108.578472 -0.989677 -1.049352 0.879738 -0.440890 -0.466626 0.383800 -0.440890 -0.466626 0.383796 -0.330374 -0.350246 0.287510 -0.124040 -17.413791 12.252162 3.851657 2.971953 22.558206 8.730959 6.902692 -5.890892 69.455552 13.968194 13.497209 7.258370 59.613761 12.394513 -72.517211 30.950794 -3.603213 -5.033416 1.503935 -12.060651 -62.824838 35.561674 -62.481321 10.124182 -1.180704 -56.825753 73.803834 -10.255238 -46.023771 1.339758 -8.902372 -1.738557 0.950723 -4.323026 0.934951 -0.779061 6.808749 -3.677473 -0.117745 -0.055142 -0.031912 0.949175 -9.282870 -0.908553 -0.061613 -3.317381 5.057045 -0.707518 6.358685 -0.517255 -0.300051 -0.098029 0.031197 
12.610849 3.942014 83.156120 -4.922537 -3.274121 -108.748476 -1.045461 -0.990431 0.881844 -0.466286 -0.439747 0.388175 -0.466286 -0.439748 0.388174 -0.349433 -0.330107 0.290793 -0.106791 -17.633081 12.109780 3.800977 2.585931 22.276918 8.768546 6.741211 -5.839970 69.661113 13.668861 14.197481 7.596918 59.728809 12.763194 -72.964541 31.240169 -3.444889 -5.087695 1.241866 -12.026868 -63.096085 35.510488 -62.164755 9.841153 -1.229665 -55.361630 74.767246 -7.098106 -47.629559 1.385958 -8.964569 -1.699361 0.929585 -4.296557 1.023723 -0.773606 6.781961 -3.644416 -0.120020 -0.062526 -0.032545 0.981419 -9.375196 -0.894213 -0.068117 -3.315236 5.075338 -0.636634 6.387857 -0.397168 -0.304039 -0.096273 0.030294 
12.578875 3.907135 83.150497 -4.988631 -3.332778 -108.924093 -1.108217 -0.940735 0.887667 -0.494637 -0.417407 0.393863 -0.494637 -0.417407 0.393860 -0.370707 -0.313374 0.295057 -0.084049 -17.812479 11.976065 3.770604 2.270677 22.018578 8.792082 6.560219 -5.795127 69.917293 13.463446 14.973148 7.962755 59.796039 13.175771 -73.286086 31.594679 -3.284973 -5.186520 0.964135 -12.066575 -63.212492 35.541897 -61.739637 9.450140 -1.220013 -53.963901 75.476616 -4.662492 -49.060497 1.427079 -9.021661 -1.636396 0.906083 -4.285298 1.102995 -0.766980 6.763081 -3.588476 -0.118071 -0.069957 -0.032702 1.008872 -9.469770 -0.863644 -0.067762 -3.315776 5.107303 -0.576771 6.420348 -0.301064 -0.303241 -0.095882 0.029023 
12.543907 3.876209 83.143997 -5.057090 -3.388143 -109.089924 -1.172836 -0.900197 0.889618 -0.524451 -0.399342 0.397267 -0.524451 -0.399342 0.397270 -0.393078 -0.299848 0.297609 -0.056430 -17.968904 11.851570 3.756409 1.995249 21.781805 8.804630 6.391249 -5.763052 70.137273 13.203526 15.817970 8.226237 59.880289 13.474169 -73.522513 31.826547 -3.149009 -5.314542 0.735001 -12.126947 -63.192733 35.531098 -61.229415 8.986476 -1.080934 -52.494604 75.697778 -2.135336 -50.205329 1.467759 -9.069258 -1.554795 0.888701 -4.291510 1.152342 -0.773525 6.750786 -3.564407 -0.110963 -0.077060 -0.031611 1.029301 -9.556107 -0.836888 -0.064295 -3.326291 5.146493 -0.518494 6.453930 -0.209091 -0.301690 -0.096066 0.026995 
12.502200 3.847966 83.138138 -5.127309 -3.444722 -109.253322 -1.233527 -0.862188 0.898014 -0.552867 -0.382942 0.403162 -0.552866 -0.382942 0.403164 -0.414396 -0.287571 0.302027 -0.025365 -18.128763 11.723750 3.747413 1.713153 21.540079 8.829866 6.246939 -5.702438 70.298820 13.032660 16.704450 8.367010 59.923941 13.626204 -73.769356 31.920121 -3.101782 -5.444742 0.617854 -12.149773 -63.103728 35.337247 -60.585048 8.503668 -0.732872 -50.956404 75.774549 0.369348 -51.540546 1.506204 -9.100320 -1.414444 0.874981 -4.325018 1.156947 -0.783609 6.742504 -3.555113 -0.101079 -0.080122 -0.029326 1.049864 -9.632096 -0.811953 -0.058874 -3.351450 5.177340 -0.466907 6.488294 -0.105532 -0.296154 -0.095295 0.024879 
12.455023 3.820971 83.133682 -5.200579 -3.502874 -109.401271 -1.290196 -0.823671 0.891436 -0.579141 -0.366103 0.402077 -0.579141 -0.366104 0.402077 -0.434114 -0.274960 0.301209 -0.005109 -18.305773 11.604006 3.718934 1.400144 21.308303 8.864146 6.121134 -5.606661 70.454747 12.999968 17.629977 8.613831 59.982038 13.907435 -73.992129 32.079722 -3.102858 -5.552374 0.568347 -12.064167 -63.066347 34.992565 -59.862647 8.131007 -0.295478 -49.493296 75.707941 2.590234 -52.926429 1.546333 -9.130181 -1.308135 0.862013 -4.363807 1.184393 -0.794917 6.730583 -3.524937 -0.093336 -0.080150 -0.027862 1.076648 -9.697729 -0.805722 -0.059192 -3.392427 5.220393 -0.419971 6.523989 -0.015118 -0.287646 -0.093925 0.024043 
12.407004 3.797365 83.130455 -5.280450 -3.560307 -109.532855 -1.349634 -0.773168 0.860272 -0.605866 -0.343540 0.390149 -0.605866 -0.343540 0.390146 -0.454179 -0.258042 0.292272 0.003083 -18.500221 11.499106 3.670784 1.054980 21.098586 8.865443 5.980722 -5.517156 70.635289 12.940498 18.567350 9.040636 60.085953 14.375303 -74.158151 32.261787 -3.087907 -5.664423 0.365766 -11.996847 -63.151629 34.848636 -59.190508 7.838538 -0.044275 -48.252865 75.524455 4.527771 -53.916140 1.586732 -9.169467 -1.283368 0.841437 -4.395875 1.267377 -0.802382 6.713479 -3.504338 -0.087444 -0.079484 -0.027187 1.099838 -9.766748 -0.807589 -0.056352 -3.431114 5.246856 -0.372575 6.552616 0.082370 -0.279956 -0.090611 0.022516 
12.359424 3.775156 83.127357 -5.358632 -3.616445 -109.691124 -1.421622 -0.720768 0.865378 -0.638528 -0.319934 0.395072 -0.638528 -0.319935 0.395072 -0.478688 -0.240364 0.295970 0.026513 -18.684795 11.370265 3.645338 0.728258 20.851453 8.848747 5.790432 -5.505349 70.813571 12.845958 19.563491 9.553920 60.147090 14.917821 -74.229799 32.285929 -3.030149 -5.776536 -0.005165 -12.053502 -63.348645 34.955737 -58.659133 7.425810 0.066903 -47.173251 75.149436 6.265572 -54.620073 1.613617 -9.205383 -1.258021 0.831049 -4.427569 1.369007 -0.814622 6.694100 -3.471042 -0.081421 -0.080441 -0.026586 1.115655 -9.836613 -0.780660 -0.049904 -3.467294 5.273378 -0.326467 6.579938 0.177527 -0.274438 -0.086892 0.021488 
12.310244 3.758622 83.124016 -5.436964 -3.666335 -109.855137 -1.510524 -0.673154 0.889838 -0.678592 -0.298876 0.408319 -0.678592 -0.298877 0.408319 -0.508743 -0.224612 0.305909 0.078218 -18.850656 11.218538 3.667969 0.433870 20.573694 8.836472 5.619399 -5.506467 70.967592 12.697044 20.593717 9.936423 60.154009 15.342835 -74.331965 32.291721 -2.977967 -5.930081 -0.357594 -12.178399 -63.456603 35.075784 -58.131699 6.873048 0.251727 -46.070408 74.675435 7.713795 -55.594342 1.633482 -9.233851 -1.186458 0.821479 -4.463938 1.443742 -0.829522 6.676003 -3.471931 -0.074247 -0.083981 -0.027509 1.120420 -9.909548 -0.748815 -0.044139 -3.495417 5.285299 -0.274049 6.605929 0.281833 -0.270003 -0.084874 0.020395 
12.257721 3.741068 83.121002 -5.519473 -3.716784 -110.000347 -1.600092 -0.629742 0.912361 -0.718890 -0.279814 0.420001 -0.718891 -0.279814 0.419999 -0.538974 -0.210354 0.314672 0.151373 -19.012649 11.041699 3.723255 0.146001 20.257499 8.848997 5.448201 -5.454703 71.070871 12.583457 21.649237 10.218802 60.116217 15.663973 -74.483875 32.373737 -2.926199 -6.119134 -0.553111 -12.238919 -63.435887 34.922754 -57.461582 6.600710 0.505359 -44.871587 74.223550 8.987950 -56.757902 1.656064 -9.267910 -1.114754 0.805388 -4.497103 1.506130 -0.843670 6.657153 -3.437209 -0.064030 -0.087901 -0.026256 1.128328 -9.979850 -0.743565 -0.037963 -3.524700 5.306543 -0.223724 6.627940 0.382777 -0.266367 -0.084480 0.019374 
12.202859 3.724434 83.118484 -5.598805 -3.764815 -110.155276 -1.683144 -0.584560 0.940429 -0.756086 -0.259924 0.435174 -0.756087 -0.259923 0.435172 -0.566879 -0.195482 0.326059 0.227929 -19.186534 10.844410 3.777497 -0.161887 19.904227 8.851853 5.287452 -5.392232 71.139815 12.502286 22.723129 10.639982 60.138887 16.143412 -74.601963 32.501711 -2.836676 -6.271232 -0.689262 -12.189746 -63.432554 34.557219 -56.707321 6.688218 0.680286 -43.704574 73.716101 10.087951 -57.713999 1.677384 -9.305808 -1.055730 0.792010 -4.509500 1.590259 -0.861206 6.627403 -3.409654 -0.057732 -0.093949 -0.026194 1.131585 -10.047562 -0.746411 -0.029230 -3.551848 5.347502 -0.173752 6.646726 0.476770 -0.265164 -0.082341 0.018685 
